<?xml version="1.0" ?><svg height="512" preserveAspectRatio="xMidYMid" viewBox="0 0 512 512" width="512" xmlns="http://www.w3.org/2000/svg" xmlns:xlink="http://www.w3.org/1999/xlink"><defs><style>
      .cls-1 {
        fill: #3498db;
      }

      .cls-2 {
        fill: #000;
        opacity: 0.3;
      }

      .cls-2, .cls-3 {
        fill-rule: evenodd;
      }

      .cls-3 {
        fill: #fff;
      }
    </style></defs><g><circle class="cls-1" cx="256" cy="256" r="256"/><path class="cls-2" d="M139.328,174.828 L0.154,264.973 C4.881,402.202 117.618,512.000 256.000,512.000 C272.825,512.000 289.271,510.377 305.190,507.279 L373.012,384.014 L328.380,309.412 L373.000,249.000 L236.000,155.000 L171.460,203.591 L139.328,174.828 Z"/><path class="cls-3" d="M235.603,250.633 L235.629,155.424 L373.000,128.000 L373.000,248.852 L235.603,250.633 ZM139.000,251.919 L139.000,174.715 L224.153,157.715 L224.023,250.894 L139.000,251.919 ZM223.879,354.230 L139.000,337.285 L139.000,260.430 L224.098,261.545 L223.879,354.230 ZM373.000,263.497 L373.000,384.000 L235.573,356.564 L235.599,261.723 L373.000,263.497 Z"/></g></svg>